<?xml version="1.0" encoding="utf-8"?>
<!-- Generator: Adobe Illustrator 23.0.3, SVG Export Plug-In . SVG Version: 6.00 Build 0)  -->
<svg version="1.1" id="Layer_1" xmlns="http://www.w3.org/2000/svg" xmlns:xlink="http://www.w3.org/1999/xlink" x="0px" y="0px"
	 viewBox="0 0 130.3 45.8" style="enable-background:new 0 0 130.3 45.8;" xml:space="preserve">
<style type="text/css">
	.st0{fill:#231F20;}
	.st1{fill:#FFFFFF;}
	.st2{font-family:'ArialNarrow';}
	.st3{font-size:7px;}
</style>
<title>Asset 1</title>
<g>
	<g id="AGE_RATINGS:_U.S_-_ESRB">
		<path class="st0" d="M130.3,0v45.8H0V0h98.6"/>
		<rect x="30.3" y="1.4" class="st1" width="98.6" height="42.9"/>
		<polyline class="st0" points="30.3,0 30.3,45.8 0,45.8 0,0 30.3,0 		"/>
		<rect x="1.4" y="1.4" class="st1" width="27.4" height="12.8"/>
		<rect x="1.4" y="15.7" class="st1" width="27.4" height="23.5"/>
		<polygon class="st1" points="1.4,44.3 1.4,40.6 6.9,40.6 6.9,41.4 3.6,41.4 3.6,42 6.4,42 6.4,42.9 3.6,42.9 3.6,43.5 7.1,43.5 
			7.1,44.3 		"/>
		<path class="st1" d="M11.7,41.7c0-0.1-0.2-0.2-0.3-0.3c-0.2,0-0.4-0.1-0.6-0.1c-0.5,0-0.7,0.1-0.7,0.2c0,0.6,3.9,0.2,3.9,1.6
			c0,0.9-1.3,1.3-3.2,1.3s-2.9-0.6-3-1.3H10c0.1,0.1,0.2,0.3,0.4,0.3c0.2,0.1,0.4,0.1,0.6,0.1c0.6,0,0.9-0.1,0.9-0.3
			c0-0.6-3.9-0.2-3.9-1.6c0-0.8,1.2-1.2,2.9-1.2c1.9,0,2.7,0.5,2.9,1.2L11.7,41.7z"/>
		<path class="st1" d="M17.3,42.2h0.9c0.7,0,1-0.1,1-0.3s-0.4-0.4-0.9-0.4h-1L17.3,42.2z M17.3,43v1.3h-2.2v-3.8h3.2
			c2.3,0,3,0.3,3,1.1c0,0.4-0.4,0.8-1.1,0.9c0.7,0.1,1.1,0.2,1.1,1c0,0.5,0,0.7,0.2,0.7v0.1h-2.2c-0.1-0.2-0.1-0.4-0.1-0.7
			c0-0.5-0.1-0.7-1.2-0.7L17.3,43z"/>
		<path class="st1" d="M24.8,41.4v0.6h0.9c0.4,0,0.8-0.1,0.8-0.3s-0.4-0.3-0.9-0.3H24.8z M24.8,42.8v0.7h1c0.5,0,1-0.1,1-0.3
			s-0.5-0.3-1.2-0.3L24.8,42.8z M22.6,44.3v-3.8h3.2c1.5,0,2.7,0.2,2.7,1c0,0.4-0.5,0.7-0.9,0.8c0.7,0.1,1.1,0.5,1.1,0.9
			c0,0.8-1.1,1.1-2.9,1.1H22.6z"/>
		<path class="st0" d="M2.2,7.1V2.9h1.1l0.5,2.9l0,0l0.5-2.9h1.1v4.3H4.7V3.8l0,0L4.1,7.1H3.5L2.9,3.8l0,0v3.3H2.2z"/>
		<path class="st0" d="M5.7,7.1l0.9-4.3h0.9l0.9,4.3H7.7l-0.2-1H6.6l-0.2,1H5.7z M7,3.7L7,3.7L6.7,5.5h0.7L7,3.7z"/>
		<path class="st0" d="M10.4,2.9v0.7H9.6v3.6H9V3.6H8.2V2.9H10.4z"/>
		<path class="st0" d="M12.9,2.9v3c0,0.2,0,0.3-0.1,0.5c0,0.1-0.1,0.3-0.2,0.4C12.6,6.9,12.5,7,12.3,7c-0.2,0.1-0.3,0.1-0.5,0.1
			c-0.3,0-0.6-0.1-0.8-0.3c-0.2-0.3-0.3-0.6-0.3-1v-3h0.7v3c0,0.2,0,0.4,0.1,0.6c0.1,0.1,0.2,0.2,0.3,0.2c0.1,0,0.3-0.1,0.3-0.2
			c0.1-0.2,0.1-0.4,0.1-0.5v-3L12.9,2.9z"/>
		<path class="st0" d="M14.1,7.1h-0.7V2.9h1.3c0.2,0,0.4,0.1,0.6,0.3c0.2,0.3,0.2,0.5,0.2,0.8c0,0.2,0,0.5-0.1,0.7
			C15.3,4.9,15.1,5,14.9,5l0,0H15c0.1,0,0.1,0.1,0.2,0.1c0.1,0.1,0.1,0.1,0.2,0.2c0.1,0.1,0.1,0.3,0.1,0.4v0.3c0,0.1,0,0.3,0,0.4
			v0.4c0,0.1,0,0.2,0,0.2h-0.7c0-0.1-0.1-0.3-0.1-0.4V6.3c0-0.1,0-0.3,0-0.4c0-0.1,0-0.2,0-0.3c0-0.1-0.1-0.1-0.1-0.2
			c-0.1-0.1-0.2-0.1-0.3-0.1h-0.2L14.1,7.1z M14.1,4.7h0.3c0.1,0,0.1,0,0.2-0.1c0,0,0.1-0.1,0.1-0.2c0-0.1,0.1-0.1,0.1-0.2
			c0-0.1,0-0.1,0-0.2c0-0.2,0-0.3-0.1-0.4c-0.1-0.1-0.2-0.1-0.3-0.1h-0.3L14.1,4.7z"/>
		<path class="st0" d="M16,7.1V2.9h1.8v0.6h-1.1v1.1h1v0.7h-1v1.2h1.1v0.7L16,7.1z"/>
		<path class="st0" d="M19.2,3.6c0.1-0.1,0.2-0.2,0.3-0.3c0.1-0.1,0.2-0.2,0.3-0.4h0.6v4.1h-0.7V4c-0.1,0.1-0.2,0.2-0.3,0.3
			c-0.1,0.1-0.2,0.1-0.3,0.2V3.6z"/>
		<path class="st0" d="M22.8,3.8L22,7.1h-0.7l0.9-3.5h-1V3h1.7V3.8z"/>
		<path class="st0" d="M23.9,3.8h0.5v1.2h0.8v0.7h-0.8v1.2h-0.5V5.6h-0.8V4.9h0.8V3.8z"/>
		<polygon class="st0" points="4.7,21.5 11.6,19.7 15.5,29 15.5,28.9 14.4,18.9 21.3,17.1 25.6,33.3 21.4,34.4 18.3,22.8 18.3,22.8 
			19.6,34.9 15,36.1 10.1,25 10.1,25 13.2,36.6 9,37.7 		"/>
		<path class="st0" d="M2.2,12.8V8.6h1.1l0.5,2.9l0,0l0.5-2.9h1.1v4.3H4.8V9.5l0,0l-0.6,3.3H3.5L2.9,9.5l0,0v3.3H2.2z"/>
		<path class="st0" d="M5.7,12.8l0.9-4.3h0.9l0.9,4.3H7.7l-0.2-0.9H6.6l-0.2,0.9H5.7z M7.1,9.4L7.1,9.4l-0.4,1.8h0.7L7.1,9.4z"/>
		<path class="st0" d="M8.8,8.6h1.1c0.2,0,0.4,0,0.5,0.1c0.1,0.1,0.3,0.3,0.3,0.4c0.1,0.2,0.1,0.4,0.1,0.7c0,0.3,0,0.6,0,0.9v0.4
			c0,0.2,0,0.3,0,0.5c0,0.2,0,0.3-0.1,0.5c0,0.2-0.1,0.3-0.2,0.4c-0.1,0.1-0.2,0.2-0.3,0.3c-0.2,0.1-0.3,0.1-0.5,0.1H8.8V8.6z
			 M9.4,12.2h0.3c0.1,0,0.2,0,0.3-0.1c0.1-0.1,0.1-0.2,0.1-0.3c0-0.1,0.1-0.3,0.1-0.5c0-0.2,0-0.4,0-0.7s0-0.4,0-0.6
			c0-0.2,0-0.3,0-0.5c0-0.1-0.1-0.2-0.1-0.3C10,9.3,9.9,9.2,9.8,9.2H9.4V12.2z"/>
		<path class="st0" d="M13.7,8.6v3c0,0.2,0,0.3-0.1,0.5c0,0.1-0.1,0.3-0.2,0.4c-0.1,0.1-0.2,0.2-0.4,0.3c-0.2,0.1-0.3,0.1-0.5,0.1
			c-0.3,0-0.6-0.1-0.9-0.4c-0.2-0.3-0.3-0.6-0.3-1v-3h0.7v3c0,0.2,0,0.4,0.1,0.6c0.1,0.1,0.2,0.2,0.3,0.2c0.1,0,0.3-0.1,0.3-0.2
			c0.1-0.2,0.1-0.4,0.1-0.6v-3L13.7,8.6z"/>
		<path class="st0" d="M15,12.8h-0.7V8.6h1.3c0.2,0,0.4,0.1,0.6,0.3c0.2,0.3,0.2,0.5,0.2,0.8c0,0.2,0,0.5-0.1,0.7
			c-0.1,0.2-0.3,0.3-0.5,0.4l0,0h0.1c0.1,0,0.1,0.1,0.2,0.1c0.1,0.1,0.1,0.2,0.2,0.3c0.1,0.1,0.1,0.3,0.1,0.4c0,0.1,0,0.2,0,0.3
			s0,0.3,0,0.4s0,0.3,0,0.4c0,0.1,0,0.2,0,0.2h-0.7c0-0.1-0.1-0.3-0.1-0.4V12c0-0.1,0-0.2,0-0.4c0-0.1,0-0.2,0-0.3
			c0-0.1-0.1-0.2-0.1-0.2c-0.1-0.1-0.2-0.1-0.3-0.1H15V12.8z M15,10.4h0.3c0.1,0,0.1,0,0.2-0.1c0,0,0.1-0.1,0.1-0.1
			c0-0.1,0.1-0.1,0.1-0.2c0-0.1,0-0.1,0-0.2c0-0.2,0-0.3-0.1-0.4c-0.1-0.1-0.2-0.1-0.3-0.1H15V10.4z"/>
		<path class="st0" d="M17.9,12.9c-0.2,0-0.5-0.1-0.7-0.2c-0.2-0.1-0.3-0.3-0.3-0.5c-0.1-0.2-0.1-0.5-0.1-0.7c0-0.3,0-0.5,0-0.8
			s0-0.6,0-0.8c0-0.2,0-0.5,0.1-0.7c0.1-0.4,0.5-0.7,1-0.7c0.4,0,0.9,0.3,1,0.7C19,9.4,19,9.6,19.1,9.9c0,0.3,0,0.5,0,0.8
			s0,0.6,0,0.8c0,0.2,0,0.5-0.1,0.7c-0.1,0.2-0.2,0.4-0.3,0.5C18.4,12.8,18.2,12.9,17.9,12.9z M17.9,12.3c0.1,0,0.2,0,0.2-0.1
			c0.1-0.1,0.1-0.2,0.1-0.3c0-0.2,0.1-0.3,0.1-0.5c0-0.2,0-0.4,0-0.7s0-0.5,0-0.7c0-0.2,0-0.3-0.1-0.5c0-0.1-0.1-0.2-0.1-0.3
			c-0.1-0.1-0.1-0.1-0.2-0.1c-0.1,0-0.2,0-0.2,0.1c-0.1,0.1-0.1,0.2-0.1,0.3c0,0.2-0.1,0.3-0.1,0.5c0,0.2,0,0.4,0,0.7s0,0.5,0,0.7
			c0,0.2,0,0.3,0.1,0.5c0,0.1,0.1,0.2,0.1,0.3C17.7,12.2,17.8,12.3,17.9,12.3z"/>
		<path class="st0" d="M21.2,9.4h0.5v1.2h0.8v0.6h-0.8v1.2h-0.5v-1.2h-0.8v-0.6h0.8V9.4z"/>
		<path class="st0" d="M22.8,9.3c0.1-0.1,0.2-0.2,0.3-0.3c0.1-0.1,0.2-0.2,0.3-0.4H24v4.1h-0.7V9.6c-0.1,0.1-0.2,0.2-0.3,0.3
			l-0.3,0.2L22.8,9.3z"/>
		<path class="st0" d="M26.4,9.5l-0.8,3.3H25l0.9-3.5h-1.1V8.7h1.7V9.5z"/>
		<text transform="matrix(1 0 0 1 35.21 8.72)" class="st0 st2 st3">Blood and Gore</text>
		<text transform="matrix(1 0 0 1 35.21 15.22)" class="st0 st2 st3">Intense Violence</text>
		<text transform="matrix(1 0 0 1 35.21 21.72)" class="st0 st2 st3">Strong Language</text>
		<text transform="matrix(1 0 0 1 35.21 28.22)" class="st0 st2 st3">Derramamiento de sangre</text>
		<text transform="matrix(1 0 0 1 35.21 34.72)" class="st0 st2 st3">Violencia intensa</text>
		<text transform="matrix(1 0 0 1 35.21 41.22)" class="st0 st2 st3">Lenguaje fuerte</text>
	</g>
</g>
</svg>
